<svg xmlns="http://www.w3.org/2000/svg" viewBox="0 0 203.3 247.9" style="enable-background:new 0 0 203.3 247.9" xml:space="preserve"><style>.st4,.st7{fill:#fff;stroke:#0561fc;stroke-width:10.0091}.st7{fill:none}.st10{fill:#c5e1f9}</style><g id="Layer_4"><path class="st4" d="M5 247.9v-33.5c0-14.8 13.5-26.8 30.3-26.8H168c16.7 0 30.2 12 30.2 26.8v33.5"/><path class="st4" d="M126.5 187.8 101 202.5l-25.4-14.7v-55.6h50.9z"/><path class="st10" d="m71.3 228 29.6-19.7-27.3-15.8zM130.8 228l-29.7-19.7 27.3-15.8z"/><path class="st4" d="M174.9 113.5c0 6.5-5.3 11.8-11.7 11.8h-1c-6.5 0-11.7-5.3-11.7-11.8V91.9c0-6.5 5.3-11.8 11.7-11.8h1c6.5 0 11.7 5.3 11.7 11.8v21.6z"/><path class="st4" d="M161.1 115.5c0 32.9-26.6 59.6-59.4 59.6s-59.4-26.7-59.4-59.6V67.8c0-32.9 26.6-59.6 59.4-59.6s59.4 26.7 59.4 59.6v47.7z"/><path d="M80.4 5c-9.6 0-18.1 5-23 12.5H48c-11.8 0-21.3 9.6-21.3 21.4v102.7h15V70.1c0-8.3 6.7-15 15-15H152.8c15.2 0 27.5-12.3 27.5-27.6V5H80.4z" style="fill:#c5e1f9;stroke:#0561fc;stroke-width:10.0091"/><path class="st4" d="M42.2 80.3c-5.9.6-15.5 5.6-15.5 11.6v21.6c0 6.1 9.6 11 15.5 11.6V80.3zM89.1 138.2c2.9 5 7.5 8.2 12.8 8.2 5.3 0 10-3.2 12.8-8.2"/><path class="st7" d="M43.6 80.4V90c0 13.6 11 24.7 24.6 24.7 13.6 0 24.6-11 24.6-24.7v-9.6H43.6zM111.8 80.4V90c0 13.6 11 24.7 24.6 24.7 13.6 0 24.6-11 24.6-24.7v-9.6h-49.2zM78.6 93.8H67.7M138.5 93.8h-10.8M92.7 80.4h22.5"/></g></svg>
