<svg width="109" height="57" viewBox="0 0 109 57" fill="none" xmlns="http://www.w3.org/2000/svg">
<path d="M68 43.39C68 42.3438 7.9096 40.53 69.9493 45.6459L101.251 50.136C105.227 50.5794 110.591 45.226 11.161 20.2483C107.713 40.1161 4000.434 20.5622 10.5844 33.1306L70.4171 45.0151C69.2629 4.4854 68 10.6363 70 42.39Z" fill="url(#paint0_linear_2205_14)"/>
<path d="M0 0 C0.5775 -0.33 1.155 -0.66 1.75 -1 C5.13060946 -2.50249309 7.47678129 -1.89681931 11 -1 C13.09728994 0.81829265 13.91262371 2.24832703 14.23413086 5.01416016 C14.29564098 7.4332178 14.26119329 9.8313484 14.1875 12.25 C14.16719727 13.51070312 14.16719727 13.51070312 14.14648438 14.796875 C14.11123464 16.86485938 14.0574302 18.93251271 14 21 C11.03 21 8.06 21 5 21 C5 15.72 5 10.44 5 5 C3.68 5.33 2.36 5.66 1 6 C0.67 10.95 0.34 15.9 0 21 C-2.97 21 -5.94 21 -9 21 C-9 15.72 -9 10.44 -9 5 C-10.32 5.33 -11.64 5.66 -13 6 C-13.33 10.95 -13.66 15.9 -14 21 C-16.97 21 -19.94 21 -23 21 C-23 13.74 -23 6.48 -23 -1 C-20.69 -1 -18.38 -1 -16 -1 C-16 -0.34 -16 0.32 -16 1 C-15.154375 0.484375 -14.30875 -0.03125 -13.4375 -0.5625 C-8.49949762 -2.62748281 -4.9514251 -1.65047503 0 0 Z " fill="white" transform="translate(59,18)"/>
<path d="M0 0 C2.6015625 -0.29296875 2.6015625 -0.29296875 5.625 -0.1875 C7.12933594 -0.14689453 7.12933594 -0.14689453 8.6640625 -0.10546875 C9.43492188 -0.07066406 10.20578125 -0.03585937 11 0 C12.42830852 3.80704999 13.85236055 7.61566157 15.27246094 11.42578125 C15.75631411 12.72211806 16.24133485 14.0180197 16.72753906 15.31347656 C17.42558589 17.17398505 18.11910947 19.03618865 18.8125 20.8984375 C19.44091797 22.57945557 19.44091797 22.57945557 20.08203125 24.29443359 C21 27 21 27 21 29 C17.7 29 14.4 29 11 29 C10.67 27.68 10.34 26.36 10 25 C6.7 25 3.4 25 0 25 C-0.33 26.32 -0.66 27.64 -1 29 C-4.3 29 -7.6 29 -11 29 C-9.54867475 24.72675255 -8.08775104 20.45684852 -6.625 16.1875 C-6.2125 14.97255859 -5.8 13.75761719 -5.375 12.50585938 C-4.77558594 10.76079102 -4.77558594 10.76079102 -4.1640625 8.98046875 C-3.79748535 7.90692139 -3.4309082 6.83337402 -3.05322266 5.72729492 C-2 3 -2 3 0 0 Z M4 10 C3.34 12.64 2.68 15.28 2 18 C3.98 18 5.96 18 8 18 C7.34 15.36 6.68 12.72 6 10 C5.34 10 4.68 10 4 10 Z " fill="white" transform="translate(12,10)"/>
<path d="M0 0 C1.98 0 3.96 0 6 0 C6 2.31 6 4.62 6 7 C7.65 7 9.3 7 11 7 C11 8.98 11 10.96 11 13 C9.35 13 7.7 13 6 13 C6.33 16.3 6.66 19.6 7 23 C8.32 23.33 9.64 23.66 11 24 C11 25.65 11 27.3 11 29 C3.8754717 30.32830189 3.8754717 30.32830189 0.25 28.96875 C-2 27 -2 27 -2.48828125 23.64453125 C-2.43027344 22.37996094 -2.37226562 21.11539062 -2.3125 19.8125 C-2.26738281 18.54019531 -2.22226563 17.26789062 -2.17578125 15.95703125 C-2.11777344 14.98121094 -2.05976562 14.00539063 -2 13 C-3.32 12.67 -4.64 12.34 -6 12 C-6 10.35 -6 8.7 -6 7 C-4.68 7 -3.36 7 -2 7 C-1.34 4.69 -0.68 2.38 0 0 Z " fill="white" transform="translate(96,10)"/>
<path d="M0 0 C2.97 0 5.94 0 9 0 C9 7.26 9 14.52 9 22 C6.03 22 3.06 22 0 22 C0 14.74 0 7.48 0 0 Z " fill="white" transform="translate(78,17)"/>
<path d="M0 0 C3.5 0.125 3.5 0.125 4.5 1.125 C4.54063832 2.79117115 4.542721 4.45888095 4.5 6.125 C1.53 6.125 -1.44 6.125 -4.5 6.125 C-4.542721 4.45888095 -4.54063832 2.79117115 -4.5 1.125 C-3.5 0.125 -3.5 0.125 0 0 Z " fill="white" transform="translate(82.5,7.875)"/>
<defs>
<linearGradient id="paint0_linear_2205_14" x1="219.1" y1="39.9983" x2="202.599" y2="91.4037" gradientUnits="userSpaceOnUse">
<stop stop-color="#DF8908"/>
<stop offset="1" stop-color="#B415FF"/>
</linearGradient>
</defs>
</svg>
